<?xml version="1.0" standalone="no"?>
<!DOCTYPE svg PUBLIC "-//W3C//DTD SVG 20010904//EN"
 "http://www.w3.org/TR/2001/REC-SVG-20010904/DTD/svg10.dtd">
<svg version="1.0" xmlns="http://www.w3.org/2000/svg"
 width="1280.000000pt" height="720.000000pt" viewBox="0 0 1280.000000 720.000000"
 preserveAspectRatio="xMidYMid meet">

<g transform="translate(0.000000,720.000000) scale(0.100000,-0.100000)"
fill="#000000" stroke="none">
<path d="M6030 6840 c-191 -16 -305 -34 -485 -76 -136 -33 -365 -117 -365
-135 0 -5 -6 -9 -13 -9 -13 0 -87 -67 -120 -109 -36 -45 -76 -138 -96 -223
-18 -74 -20 -106 -16 -230 3 -78 10 -435 16 -793 6 -357 12 -668 14 -690 1
-22 6 -101 9 -175 10 -203 14 -264 26 -395 19 -218 30 -329 40 -405 5 -41 14
-115 20 -165 6 -49 15 -117 20 -150 5 -33 14 -100 20 -150 6 -49 15 -117 20
-150 5 -33 16 -105 25 -160 10 -66 12 -110 6 -130 -12 -41 -16 -29 -50 175
-24 138 -29 159 -26 98 3 -42 12 -127 21 -189 19 -128 19 -127 -62 -125 l-54
1 -28 58 -27 59 3 -94 c2 -53 -3 -135 -13 -193 -8 -55 -21 -131 -27 -170 -13
-85 -31 -115 -67 -115 -20 0 -33 -10 -53 -43 -87 -133 -246 -231 -455 -277
-91 -21 -213 -144 -213 -216 0 -32 30 -87 66 -121 18 -16 26 -39 33 -86 5 -35
16 -79 25 -96 36 -68 135 -116 366 -175 151 -38 516 -119 543 -120 9 0 17 -4
17 -8 0 -4 7 -5 15 -2 8 4 15 2 15 -3 0 -5 7 -10 15 -10 21 0 19 17 -7 44
l-21 23 41 -17 c23 -10 113 -54 199 -98 153 -78 159 -82 180 -127 41 -86 110
-137 252 -189 48 -17 77 -36 118 -78 67 -69 137 -151 128 -151 -3 0 0 -7 9
-15 8 -8 20 -15 26 -15 6 0 8 -4 5 -10 -6 -10 42 -59 59 -60 17 0 98 89 90
101 -4 7 -3 10 3 6 15 -9 36 19 27 35 -4 7 -4 10 0 6 5 -4 23 12 41 35 18 23
38 41 44 39 7 -1 10 1 7 6 -11 19 61 72 129 96 158 53 236 111 269 197 9 25
27 51 39 59 73 45 373 190 395 190 3 0 -10 -16 -29 -36 -32 -34 -33 -35 -9
-30 14 4 138 31 275 61 529 117 631 153 689 243 20 31 42 122 36 155 0 4 17
28 39 53 74 84 68 136 -28 235 -63 66 -70 70 -143 89 -201 50 -398 176 -451
288 -6 13 -19 22 -33 22 -13 0 -28 8 -33 18 -15 29 -70 285 -77 361 l-7 69
-38 6 c-20 3 -45 3 -54 0 -25 -10 -33 11 -24 69 5 28 13 96 19 152 6 55 13
113 16 129 4 18 2 26 -4 22 -5 -3 -13 -32 -17 -63 -10 -86 -44 -285 -49 -290
-2 -3 -7 5 -11 17 -7 23 -1 90 21 240 8 52 19 129 24 170 24 197 31 249 40
300 5 30 12 84 16 120 3 36 8 72 9 82 5 25 24 227 35 378 6 74 12 158 15 185
3 28 7 100 10 160 2 61 7 157 10 215 8 157 14 407 20 880 3 234 10 512 15 618
9 165 8 203 -6 264 -20 85 -65 187 -99 218 -14 13 -25 29 -25 36 0 7 -9 16
-20 19 -11 3 -20 10 -20 15 0 17 -120 81 -216 114 -107 37 -307 87 -419 105
-198 32 -501 45 -675 31z m-622 -4365 c61 -31 62 -27 -26 -144 -55 -72 -149
-158 -160 -146 -14 14 2 102 59 318 l10 38 32 -20 c18 -11 56 -31 85 -46z
m1755 -102 c39 -156 44 -193 26 -193 -26 0 -208 204 -221 248 -2 8 129 86 152
91 3 1 22 -65 43 -146z m467 -444 c-14 -6 -65 -12 -115 -14 l-90 -4 80 9 c44
5 87 11 95 14 8 2 24 4 35 4 16 1 15 -1 -5 -9z m-2137 -35 l38 -9 -69 -90
c-75 -99 -148 -161 -202 -171 -37 -8 -135 15 -209 47 -43 19 -43 20 -37 57 3
20 6 69 6 107 l0 70 218 -1 c119 -1 234 -6 255 -10z m1877 -69 c0 -44 3 -97 6
-117 7 -43 2 -47 -113 -75 -79 -20 -105 -10 -186 66 -76 72 -188 221 -147 196
5 -3 18 -2 27 4 11 6 98 9 215 8 l198 -2 0 -80z m-981 13 c35 -89 44 -154 38
-278 -7 -150 -43 -288 -92 -359 -5 -8 -29 -34 -53 -58 -41 -42 -45 -43 -97
-42 -30 1 -55 6 -55 11 0 4 -6 8 -14 8 -20 0 -72 62 -102 122 -14 28 -37 94
-49 146 -40 161 -25 420 28 490 7 9 58 12 192 12 l183 0 21 -52z m380 -978
c-19 -54 -161 -156 -207 -148 -9 1 -23 -1 -31 -6 -10 -6 -12 -5 -7 2 12 20
219 171 227 166 4 -2 10 0 14 6 12 19 14 10 4 -20z m-1035 -66 c48 -36 85 -68
81 -72 -3 -3 -10 0 -15 8 -6 10 -10 11 -10 3 0 -16 -26 -7 -66 23 -17 13 -35
20 -38 17 -4 -4 -9 3 -13 15 -3 12 -8 20 -12 18 -3 -2 -12 2 -19 10 -7 8 -10
14 -6 14 3 0 1 7 -6 15 -30 36 19 12 104 -51z"/>
<path d="M5062 3080 c0 -14 2 -19 5 -12 2 6 2 18 0 25 -3 6 -5 1 -5 -13z"/>
<path d="M5505 415 c-54 -53 -16 -145 60 -145 49 0 85 36 85 85 0 49 -36 85
-85 85 -25 0 -44 -8 -60 -25z"/>
<path d="M6755 414 c-42 -45 -28 -115 27 -138 60 -26 118 15 118 82 0 75 -94
111 -145 56z"/>
<path d="M10512 164 c-19 -13 -22 -24 -22 -90 l0 -74 136 0 136 0 -17 28 c-84
128 -171 180 -233 136z"/>
<path d="M1716 120 c-72 -31 -96 -48 -128 -92 l-19 -28 125 0 126 0 0 24 c0
13 7 27 16 30 8 3 13 10 9 15 -3 6 1 16 8 23 12 11 12 16 0 35 -20 31 -53 29
-137 -7z"/>
<path d="M1872 124 c10 -10 20 -16 22 -13 3 3 -5 11 -17 18 -21 13 -21 12 -5
-5z"/>
<path d="M1870 85 c-8 -9 -8 -15 -2 -15 6 0 12 5 14 11 2 6 14 1 27 -10 13
-12 27 -19 30 -15 6 5 -38 43 -50 44 -4 0 -12 -7 -19 -15z"/>
<path d="M10295 68 c-38 -45 -19 -60 86 -66 75 -4 82 -3 76 12 -4 10 -7 20 -7
22 0 2 -17 1 -39 -2 -36 -6 -39 -4 -60 30 -13 20 -24 36 -26 36 -2 0 -15 -14
-30 -32z"/>
<path d="M2176 45 c-6 -18 2 -45 15 -45 12 0 12 17 -1 25 -5 3 -7 12 -3 20 3
8 3 15 0 15 -3 0 -7 -7 -11 -15z"/>
<path d="M1895 15 c-28 -13 -25 -13 55 -14 83 0 84 0 51 14 -41 18 -67 18
-106 0z"/>
<path d="M4787 3 c788 -2 2078 -2 2865 0 788 1 144 2 -1432 2 -1576 0 -2220
-1 -1433 -2z"/>
</g>
</svg>
